# xmcd
#
# Track frame offsets:
#	150
#	13164
#	23301
#	36166
#	50717
#	63808
#	75200
#	85431
#	95231
#	103647
#	116076
#	129515
#	141395
#	151984
#
# Disc length: 2308 seconds
# Revision: 0
# Processed by: cddbd v1.5.2PL0 Copyright (c) Steve Scherf et al.
# Submitted via: dBpowerAMP V12.0
#
DISCID=b209020e
DTITLE=Sid Selvidge - Live at Otherlands [CD)
DYEAR=2005
DGENRE=Folk
TTITLE0=Keep It Clean
TTITLE1=Chinese Man Blues
TTITLE2=Mama You Don't Mean Me No Good
TTITLE3=Since I Met You Baby
TTITLE4=Judge Boushe
TTITLE5=Come From the Heart
TTITLE6=Every Natural Thing
TTITLE7=A Little Bit of Rain
TTITLE8=The Boll Weevil
TTITLE9=The Outlaw
TTITLE10=Long Black Veil
TTITLE11=Pearlee
TTITLE12=Hobo Bill
TTITLE13=Kassie Jones, Pt. 1
EXTD=
EXTT0=
EXTT1=
EXTT2=
EXTT3=
EXTT4=
EXTT5=
EXTT6=
EXTT7=
EXTT8=
EXTT9=
EXTT10=
EXTT11=
EXTT12=
EXTT13=
PLAYORDER=
